<svg width="59" height="59" viewBox="0 0 59 59" fill="none" xmlns="http://www.w3.org/2000/svg">
<g clip-path="url(#clip0_840_2)">
<path d="M29.5 1.51102e-06C13.2131 -0.00515583 0.00515885 13.1925 1.51102e-06 29.4794C1.51102e-06 29.4858 1.51102e-06 29.4936 1.51102e-06 29.5C-0.00515583 45.7869 13.1925 58.9949 29.4794 59C29.4858 59 29.4936 59 29.5 59C45.7869 59.0052 58.9949 45.8075 59 29.5206C59 29.5142 59 29.5065 59 29.5C59.0052 13.2131 45.8075 0.00515885 29.5206 1.51102e-06C29.5142 1.51102e-06 29.5065 1.51102e-06 29.5 1.51102e-06ZM29.5 50.7483C27.0387 50.7534 25.0389 48.764 25.0337 46.3026C25.0286 43.8413 27.018 41.8415 29.4794 41.8364C31.9407 41.8312 33.9405 43.8207 33.9456 46.282C33.9456 46.2884 33.9456 46.2962 33.9456 46.3026C33.9405 48.7549 31.9523 50.7431 29.5 50.7483ZM34.8946 14.028L33.2133 36.7203C33.1914 37.0465 32.9206 37.2992 32.5944 37.2979H26.4056C26.0794 37.2992 25.8086 37.0465 25.7867 36.7203L24.1054 14.028C23.921 11.0483 26.1864 8.48383 29.1661 8.29946C32.1457 8.11508 34.7102 10.3804 34.8946 13.3601C34.9088 13.5832 34.9088 13.8062 34.8946 14.028Z" fill="#FFC736"/>
</g>
<defs>
<clipPath id="clip0_840_2">
<rect width="59" height="59" fill="white"/>
</clipPath>
</defs>
</svg>
