<svg width="47" height="47" viewBox="0 0 47 47" fill="none" xmlns="http://www.w3.org/2000/svg">
<path d="M23.5 0C10.542 0 0 10.542 0 23.5C0 36.458 10.542 47 23.5 47C36.458 47 47 36.458 47 23.5C47 10.542 36.458 0 23.5 0Z" fill="#43B1E5"/>
<path d="M35.4107 18.52L22.6812 31.2486C22.2993 31.6305 21.7981 31.8223 21.2969 31.8223C20.7957 31.8223 20.2945 31.6305 19.9126 31.2486L13.5483 24.8843C12.7827 24.1187 12.7827 22.8813 13.5483 22.1157C14.3139 21.3501 15.5513 21.3501 16.3169 22.1157L21.2969 27.0957L32.6421 15.7514C33.4076 14.9858 34.6451 14.9858 35.4107 15.7514C36.1762 16.517 36.1762 17.7544 35.4107 18.52Z" fill="#FAFAFA"/>
</svg>
