<svg width="47" height="47" viewBox="0 0 47 47" fill="none" xmlns="http://www.w3.org/2000/svg">
<g clip-path="url(#clip0_9_2)">
<path d="M23.5 47C36.4787 47 47 36.4787 47 23.5C47 10.5213 36.4787 0 23.5 0C10.5213 0 0 10.5213 0 23.5C0 36.4787 10.5213 47 23.5 47Z" fill="#CC0000"/>
<path d="M31.7616 28.8058L26.4558 23.5L31.7616 18.1942C32.5762 17.3796 32.5762 16.0531 31.7616 15.2384C30.9469 14.4238 29.6204 14.4238 28.8058 15.2384L23.5 20.5442L18.1942 15.2384C17.3796 14.4238 16.0531 14.4238 15.2384 15.2384C14.4238 16.0531 14.4238 17.3796 15.2384 18.1942L20.5442 23.5L15.2384 28.8058C14.4238 29.6204 14.4238 30.9469 15.2384 31.7616C16.0531 32.5762 17.3796 32.5762 18.1942 31.7616L23.5 26.4558L28.8058 31.7616C29.6204 32.5762 30.9469 32.5762 31.7616 31.7616C32.5762 30.9469 32.5762 29.6204 31.7616 28.8058Z" fill="white"/>
</g>
<defs>
<clipPath id="clip0_9_2">
<rect width="47" height="47" fill="white"/>
</clipPath>
</defs>
</svg>
